<?xml version="1.0" standalone="no"?>
<!DOCTYPE svg PUBLIC "-//W3C//DTD SVG 20010904//EN"
 "http://www.w3.org/TR/2001/REC-SVG-20010904/DTD/svg10.dtd">
<svg version="1.0" xmlns="http://www.w3.org/2000/svg"
 width="300.000000pt" height="80.000000pt" viewBox="0 0 300.000000 80.000000"
 preserveAspectRatio="xMidYMid meet">
<metadata>
Created by potrace 1.10, written by Peter Selinger 2001-2011
</metadata>
<g transform="translate(0.000000,80.000000) scale(0.050000,-0.050000)"
fill="#000000" stroke="none">
<path d="M2969 1342 c87 -88 167 -155 178 -148 10 7 13 3 6 -9 -19 -31 33 -66
68 -44 16 10 43 18 59 17 17 0 8 -11 -20 -24 -58 -26 45 -42 201 -30 l81 6
-166 85 c-91 47 -256 135 -366 196 l-200 111 159 -160z"/>
<path d="M2607 1120 c-90 -176 -160 -320 -156 -320 4 0 115 110 247 245 l241
245 -74 75 c-95 98 -72 119 -258 -245z"/>
<path d="M2925 1187 c-63 -68 -57 -80 40 -79 47 0 101 -7 120 -16 51 -24 22
43 -44 102 -61 54 -60 54 -116 -7z"/>
<path d="M2662 919 c-134 -125 -135 -132 -22 -99 80 24 805 193 880 206 28 5
-125 9 -340 10 l-390 2 -128 -119z"/>
<path d="M2080 450 c0 -197 3 -210 40 -210 37 0 40 13 40 210 0 197 -3 210
-40 210 -37 0 -40 -13 -40 -210z"/>
<path d="M1340 600 c0 -33 13 -40 80 -40 l80 0 0 -160 c0 -147 3 -160 40 -160
37 0 40 13 40 160 l0 160 80 0 c67 0 80 7 80 40 0 37 -13 40 -200 40 -187 0
-200 -3 -200 -40z"/>
<path d="M3173 603 c-24 -26 -33 -74 -33 -179 0 -175 17 -188 225 -180 l145 6
0 110 0 110 -125 6 c-115 5 -125 2 -125 -35 0 -36 13 -41 100 -41 87 0 100 -5
100 -41 0 -37 -10 -40 -125 -35 l-125 6 0 110 0 110 155 6 c139 5 155 10 155
45 0 57 -296 59 -347 2z"/>
<path d="M1775 518 c-53 -30 -50 -229 4 -257 73 -39 241 -27 241 18 0 33 -16
40 -105 45 -163 9 -163 123 0 132 89 5 105 12 105 45 0 44 -177 57 -245 17z"/>
<path d="M2180 500 c0 -33 13 -40 80 -40 l80 0 0 -110 c0 -95 5 -110 38 -110
42 0 40 221 -3 275 -35 44 -195 32 -195 -15z"/>
<path d="M2520 500 c0 -35 11 -40 85 -35 85 5 85 5 91 -70 l6 -75 -92 0 c-114
0 -116 47 -3 56 100 9 102 64 2 64 -103 0 -149 -31 -149 -100 0 -106 224 -149
289 -56 85 121 16 256 -130 256 -86 0 -99 -5 -99 -40z"/>
<path d="M2866 516 c-45 -57 -49 -276 -6 -276 35 0 40 14 40 109 l0 109 95 6
c68 4 95 14 95 36 0 40 -194 54 -224 16z"/>
<path d="M3611 496 c-49 -71 -43 -256 9 -256 35 0 40 13 40 110 l0 110 90 0
c77 0 90 6 90 40 0 62 -185 58 -229 -4z"/>
<path d="M3920 500 c0 -35 11 -40 85 -35 85 5 85 5 91 -70 l6 -75 -92 0 c-114
0 -116 47 -3 56 111 10 98 64 -16 64 -84 0 -151 -46 -151 -104 0 -81 207 -129
291 -68 43 32 48 195 7 245 -39 47 -218 36 -218 -13z"/>
<path d="M4233 526 c-37 -36 -13 -286 27 -286 35 0 40 13 40 110 0 109 1 110
60 110 59 0 60 -1 60 -110 0 -99 4 -110 42 -110 40 0 42 8 34 110 -9 104 -7
110 37 110 44 0 47 -8 47 -110 0 -97 5 -110 40 -110 48 0 57 155 14 240 -25
49 -359 88 -401 46z"/>
</g>
</svg>
