<?xml version="1.0" encoding="UTF-8"?>
<svg version="1.1" xmlns="http://www.w3.org/2000/svg" width="850" height="228">
<path d="M0 0 C280.5 0 561 0 850 0 C850 75.24 850 150.48 850 228 C569.5 228 289 228 0 228 C0 152.76 0 77.52 0 0 Z " fill="#E5C3C3" transform="translate(0,0)"/>
<path d="M0 0 C6.35326406 0.34297747 12.71111613 0.48939632 19.07104492 0.65460205 C31.46101361 1.00434817 43.83111938 1.56420955 56.20581055 2.26593018 C52.9711798 3.94848094 50.01362769 4.90028313 46.44799805 5.71124268 C44.69942505 6.11355103 44.69942505 6.11355103 42.91552734 6.52398682 C41.6500708 6.81007813 40.38461426 7.09616943 39.08081055 7.39093018 C37.7457931 7.69688838 36.41091618 8.0034603 35.07617188 8.31060791 C32.97054424 8.79503617 30.86482714 9.2790402 28.75868225 9.76121521 C20.79586831 11.58428948 12.84439748 13.4549911 4.89331055 15.32843018 C3.44295595 15.66967215 1.99259788 16.0108994 0.54223633 16.35211182 C-8.81460671 18.55500632 -18.16336618 20.79011622 -27.50830078 23.04302979 C-37.04261711 25.3364678 -46.59112416 27.56824437 -56.14379883 29.78375244 C-61.56993163 31.0425783 -66.99380333 32.30548371 -72.40356445 33.63311768 C-73.2047168 33.82824951 -74.00586914 34.02338135 -74.83129883 34.22442627 C-76.2559275 34.57303907 -77.67923854 34.92710479 -79.10083008 35.28790283 C-83.57186467 36.37709257 -83.57186467 36.37709257 -85.79418945 35.26593018 C-61.86252935 1.62476853 -39.89662493 -2.38824253 0 0 Z " fill="#A851FD" transform="translate(445.794189453125,77.73406982421875)"/>
<path d="M0 0 C1.45432686 0.00424484 1.45432686 0.00424484 2.93803406 0.00857544 C6.0252228 0.01974259 9.11211814 0.04484098 12.19921875 0.0703125 C14.29621976 0.08034677 16.39322533 0.08947184 18.49023438 0.09765625 C23.62250835 0.11967062 28.75456385 0.15417679 33.88671875 0.1953125 C33.88671875 3.4953125 33.88671875 6.7953125 33.88671875 10.1953125 C32.58935791 10.22036865 31.29199707 10.2454248 29.95532227 10.27124023 C25.16013019 10.36513002 20.36508925 10.46539499 15.57006836 10.56762695 C13.49132818 10.61104584 11.41255072 10.65271562 9.33374023 10.69262695 C6.3525873 10.75016171 3.37162326 10.81390369 0.390625 10.87890625 C-1.01249184 10.90397499 -1.01249184 10.90397499 -2.44395447 10.92955017 C-3.30477127 10.94949539 -4.16558807 10.96944061 -5.05249023 10.98999023 C-6.19499489 11.01330666 -6.19499489 11.01330666 -7.36058044 11.03709412 C-9.14063131 11.00910579 -9.14063131 11.00910579 -10.11328125 12.1953125 C-10.21343035 14.39008941 -10.24409344 16.5880965 -10.24609375 18.78515625 C-10.24705048 19.4448793 -10.2480072 20.10460236 -10.24899292 20.78431702 C-10.24967461 22.18230281 -10.24782111 23.58029174 -10.24365234 24.97827148 C-10.23831231 27.12035232 -10.24359324 29.26222267 -10.25 31.40429688 C-10.24933905 32.76041713 -10.24805754 34.11653726 -10.24609375 35.47265625 C-10.24496582 36.71265381 -10.24383789 37.95265137 -10.24267578 39.23022461 C-10.31824823 42.12520625 -10.31824823 42.12520625 -9.11328125 44.1953125 C7.22171875 44.6903125 7.22171875 44.6903125 23.88671875 45.1953125 C23.88671875 41.2353125 23.88671875 37.2753125 23.88671875 33.1953125 C15.30671875 33.1953125 6.72671875 33.1953125 -2.11328125 33.1953125 C-2.11328125 29.5653125 -2.11328125 25.9353125 -2.11328125 22.1953125 C2.3707336 22.12103601 6.85442049 22.06665139 11.33886719 22.03051758 C12.86367025 22.01545099 14.38843011 21.99499374 15.91308594 21.96899414 C18.10753041 21.93251544 20.30140091 21.91556536 22.49609375 21.90234375 C23.81577148 21.8866333 25.13544922 21.87092285 26.49511719 21.85473633 C30.09574518 22.21630241 31.57189805 22.4202688 33.88671875 25.1953125 C34.37255859 28.07446289 34.37255859 28.07446289 34.34765625 31.54296875 C34.34378906 32.78755859 34.33992188 34.03214844 34.3359375 35.31445312 C34.29919922 37.26641602 34.29919922 37.26641602 34.26171875 39.2578125 C34.26042969 40.56298828 34.25914062 41.86816406 34.2578125 43.21289062 C34.16728194 52.91474931 34.16728194 52.91474931 31.88671875 55.1953125 C30.05413818 55.46273804 30.05413818 55.46273804 27.80761719 55.48583984 C26.96624207 55.49859955 26.12486694 55.51135925 25.25799561 55.52450562 C23.89085419 55.52784409 23.89085419 55.52784409 22.49609375 55.53125 C21.55872375 55.5379068 20.62135376 55.5445636 19.65557861 55.55142212 C17.66835495 55.56156123 15.68109716 55.56623875 13.69384766 55.56591797 C10.66250808 55.57027543 7.63264274 55.6065379 4.6015625 55.64453125 C2.67057789 55.65040239 0.73958637 55.65436979 -1.19140625 55.65625 C-2.09473694 55.67062103 -2.99806763 55.68499207 -3.92877197 55.69979858 C-9.46847521 55.65988304 -12.80856125 55.02436831 -17.11328125 51.1953125 C-20.58795691 47.028919 -20.58069605 42.81972785 -20.58203125 37.60546875 C-20.58964478 36.78332382 -20.5972583 35.96117889 -20.60510254 35.11412048 C-20.61587825 33.38022896 -20.61876694 31.64627266 -20.61425781 29.91235352 C-20.61328545 27.26923713 -20.65493185 24.62902578 -20.69921875 21.98632812 C-20.70442639 20.29688102 -20.70711393 18.60742388 -20.70703125 16.91796875 C-20.72342651 16.13341812 -20.73982178 15.34886749 -20.75671387 14.5405426 C-20.7072721 10.58645866 -20.3440921 7.95574232 -17.88867188 4.77514648 C-12.30638948 -0.41380303 -7.28240716 -0.08025834 0 0 Z " fill="#373636" transform="translate(465.11328125,137.8046875)"/>
<path d="M0 0 C3.76603869 1.56282982 6.13639151 3.9063475 8.984375 6.7890625 C9.44483215 7.25234955 9.90528931 7.7156366 10.37969971 8.19296265 C11.84125078 9.66565898 13.29567168 11.14517403 14.75 12.625 C15.74302611 13.62806322 16.73651089 14.63067257 17.73046875 15.6328125 C20.15897941 18.08330835 22.58114675 20.5399667 25 23 C21.0682924 27.70745077 16.97742714 32.1641171 12.62744141 36.48608398 C12.02184387 37.09182755 11.41624634 37.69757111 10.79229736 38.32167053 C8.81441659 40.29886146 6.83303086 42.27249876 4.8515625 44.24609375 C3.46986361 45.62592516 2.08838712 47.0059793 0.7071228 48.38624573 C-2.91064913 52.0002185 -6.53141519 55.61117673 -10.15283203 59.22149658 C-13.85501777 62.91341203 -17.55433771 66.60819663 -21.25390625 70.30273438 C-28.49981631 77.53795303 -35.74889555 84.76998741 -43 92 C-43.33 91.34 -43.66 90.68 -44 90 C-43.27209473 88.02520752 -43.27209473 88.02520752 -42.05664062 85.56738281 C-41.60396317 84.64230927 -41.15128571 83.71723572 -40.68489075 82.76412964 C-40.1804393 81.75399811 -39.67598785 80.74386658 -39.15625 79.703125 C-38.63999557 78.6540799 -38.12374115 77.60503479 -37.59184265 76.52420044 C-35.90215433 73.09565937 -34.20119118 69.67284603 -32.5 66.25 C-31.34481129 63.91128987 -30.19027075 61.57225946 -29.03637695 59.23291016 C-22.21596126 45.42026443 -15.36391073 31.62212212 -8.41796875 17.87207031 C-5.44769126 11.97971095 -2.60023839 6.06561365 0 0 Z " fill="#31E5E2" transform="translate(392,21)"/>
<path d="M0 0 C2.55029297 -0.37231445 2.55029297 -0.37231445 5.7421875 -0.36328125 C6.89074219 -0.36263672 8.03929687 -0.36199219 9.22265625 -0.36132812 C10.42792969 -0.34521484 11.63320313 -0.32910156 12.875 -0.3125 C14.67130859 -0.31733398 14.67130859 -0.31733398 16.50390625 -0.32226562 C26.25460273 -0.26221094 26.25460273 -0.26221094 30 2 C30 1.34 30 0.68 30 0 C32.87557703 -0.08138426 35.74882262 -0.14067851 38.625 -0.1875 C39.43324219 -0.21263672 40.24148438 -0.23777344 41.07421875 -0.26367188 C46.15297933 -0.32560798 49.60713321 0.15516045 54 3 C57.93439877 8.15541907 58.12647446 13.30209402 58.09765625 19.61328125 C58.09443359 20.86044922 58.09121094 22.10761719 58.08789062 23.39257812 C58.07532227 25.33293945 58.07532227 25.33293945 58.0625 27.3125 C58.05798828 28.62541016 58.05347656 29.93832031 58.04882812 31.29101562 C58.03705949 34.5273901 58.0206176 37.76367178 58 41 C54.37 41 50.74 41 47 41 C47 30.77 47 20.54 47 10 C43.04 10 39.08 10 35 10 C35 20.23 35 30.46 35 41 C31.7 41 28.4 41 25 41 C24.67 31.1 24.34 21.2 24 11 C18.72 10.67 13.44 10.34 8 10 C8 20.23 8 30.46 8 41 C4.7 41 1.4 41 -2 41 C-2.04941382 35.64316151 -2.08572607 30.2864555 -2.10986328 24.92944336 C-2.11992491 23.10682871 -2.1335756 21.28423021 -2.15087891 19.46166992 C-2.17512021 16.84289565 -2.18648138 14.22433469 -2.1953125 11.60546875 C-2.20563507 10.78974899 -2.21595764 9.97402924 -2.22659302 9.1335907 C-2.2273686 5.22869244 -2.21650661 3.32475992 0 0 Z " fill="#393838" transform="translate(601,152)"/>
<path d="M0 0 C3.30262198 1.25764135 6.33959721 2.66788739 9.39453125 4.44140625 C10.6794043 5.18003906 10.6794043 5.18003906 11.99023438 5.93359375 C12.92158203 6.47113281 13.85292969 7.00867188 14.8125 7.5625 C24.44411819 13.06985803 34.18586354 18.32778688 44 23.5 C54.35871765 28.96109402 64.61891018 34.54899462 74.78149414 40.36987305 C85.02979534 46.21211958 95.50391341 51.61915986 106 57 C106 57.33 106 57.66 106 58 C99.15033893 58.20337138 92.30145976 58.34315635 85.44946289 58.43945312 C83.12039092 58.47960675 80.79151963 58.53414347 78.46313477 58.60351562 C75.10903396 58.70092278 71.75760411 58.7460082 68.40234375 58.78125 C67.36665756 58.82254028 66.33097137 58.86383057 65.26390076 58.90637207 C58.1790249 58.91073829 58.1790249 58.91073829 55.10101318 56.53312683 C53.43432617 54.60424805 53.43432617 54.60424805 51.79719543 52.39987183 C49.77603025 49.70092363 47.54584397 47.41606024 45.15380859 45.0402832 C44.26954193 44.15609207 43.38527527 43.27190094 42.47421265 42.36091614 C41.54170685 41.43357162 40.60920105 40.50622711 39.6484375 39.55078125 C38.66128841 38.56550334 37.67436438 37.5799999 36.68765259 36.59428406 C34.11082076 34.02123568 31.53100262 31.45120267 28.95050049 28.88183594 C26.32976455 26.2713543 23.7118728 23.65802384 21.09375 21.04492188 C16.4855993 16.4462894 11.87499485 11.85013221 7.26254272 7.2558136 C4.83920991 4.83968813 2.41918942 2.42027351 0 0 Z " fill="#FE49FD" transform="translate(398,14)"/>
<path d="M0 0 C4.37477474 -0.11651725 8.74914827 -0.18736 13.125 -0.25 C14.3625 -0.28351563 15.6 -0.31703125 16.875 -0.3515625 C27.15982168 -0.46215198 27.15982168 -0.46215198 30.6796875 1.640625 C35.44992179 6.49116627 36.38037597 10.7523822 36.41015625 17.34375 C36.39855469 18.2203125 36.38695312 19.096875 36.375 20 C36.38660156 20.8765625 36.39820313 21.753125 36.41015625 22.65625 C36.38132569 29.03741315 35.25381 33.30996871 31.0625 38.3125 C26.03998545 42.42183009 18.7756675 41.25996013 12.625 41.3125 C11.5009375 41.34150391 10.376875 41.37050781 9.21875 41.40039062 C2.83658105 41.4494262 -1.23357386 41.43262105 -6 37 C-8.93097803 33.96368027 -9.43163816 31.81035509 -9.4375 27.625 C-9.30509073 22.66627291 -8.39121155 19.77877859 -5 16 C0.55651968 12.29565355 6.35193739 12.87486964 12.8125 12.9375 C14.13797852 12.94426758 14.13797852 12.94426758 15.49023438 12.95117188 C17.66018559 12.96290134 19.83010172 12.98083505 22 13 C22 16.3 22 19.6 22 23 C12.1 23.495 12.1 23.495 2 24 C1.67 25.65 1.34 27.3 1 29 C2.02714661 30.2505313 2.02714661 30.2505313 4.22485352 30.11352539 C5.18319092 30.10828857 6.14152832 30.10305176 7.12890625 30.09765625 C8.16337891 30.09443359 9.19785156 30.09121094 10.26367188 30.08789062 C11.35228516 30.07951172 12.44089844 30.07113281 13.5625 30.0625 C14.65498047 30.05798828 15.74746094 30.05347656 16.87304688 30.04882812 C19.58208495 30.03699826 22.29101599 30.02051543 25 30 C25.02888514 26.85418577 25.04675923 23.70840531 25.0625 20.5625 C25.07506836 19.21575195 25.07506836 19.21575195 25.08789062 17.84179688 C25.09111328 16.98779297 25.09433594 16.13378906 25.09765625 15.25390625 C25.10289307 14.46314697 25.10812988 13.6723877 25.11352539 12.85766602 C25.20495909 10.98407311 25.20495909 10.98407311 24 10 C22.22130274 9.84235595 20.43681524 9.74899323 18.65234375 9.68359375 C17.57275391 9.64169922 16.49316406 9.59980469 15.38085938 9.55664062 C13.67639648 9.49766602 13.67639648 9.49766602 11.9375 9.4375 C10.79732422 9.39431641 9.65714844 9.35113281 8.48242188 9.30664062 C5.65507805 9.20017161 2.82764262 9.09815793 0 9 C0 6.03 0 3.06 0 0 Z " fill="#393838" transform="translate(555,152)"/>
<path d="M0 0 C4.18712951 -0.14599475 8.37359895 -0.23430718 12.5625 -0.3125 C13.74392578 -0.35439453 14.92535156 -0.39628906 16.14257812 -0.43945312 C26.00897188 -0.57763791 26.00897188 -0.57763791 30.21484375 2.26953125 C35.68760547 7.63483341 35.42273375 12.40970612 35.5 19.75 C35.54125 20.71421875 35.5825 21.6784375 35.625 22.671875 C35.69307324 28.93461349 34.67077343 32.58415754 30.68554688 37.45019531 C25.34905347 42.35692477 18.97769842 41.36751071 12.125 41.375 C10.95324219 41.39949219 9.78148437 41.42398438 8.57421875 41.44921875 C2.10459488 41.47124925 -2.13755155 41.46551388 -7 37 C-10.33271032 33.2229283 -10.61993863 29.38537908 -10.49609375 24.51171875 C-9.66789838 20.31857211 -7.19763024 17.70887329 -4 15 C-1.44276771 13.72138385 0.36737102 13.88663391 3.2265625 13.90234375 C4.2578125 13.90556641 5.2890625 13.90878906 6.3515625 13.91210938 C7.97191406 13.92467773 7.97191406 13.92467773 9.625 13.9375 C11.25695312 13.94426758 11.25695312 13.94426758 12.921875 13.95117188 C15.61463789 13.96298224 18.30729188 13.97945222 21 14 C21 16.97 21 19.94 21 23 C11.1 23.495 11.1 23.495 1 24 C0.67 25.65 0.34 27.3 0 29 C1.02714661 30.2505313 1.02714661 30.2505313 3.22485352 30.11352539 C4.18319092 30.10828857 5.14152832 30.10305176 6.12890625 30.09765625 C7.16337891 30.09443359 8.19785156 30.09121094 9.26367188 30.08789062 C10.35228516 30.07951172 11.44089844 30.07113281 12.5625 30.0625 C13.65498047 30.05798828 14.74746094 30.05347656 15.87304688 30.04882812 C18.58205432 30.0369984 21.2910338 30.01906231 24 30 C24.33 23.4 24.66 16.8 25 10 C16.75 9.67 8.5 9.34 0 9 C0 6.03 0 3.06 0 0 Z " fill="#373737" transform="translate(358,152)"/>
<path d="M0 0 C17.82 0 35.64 0 54 0 C54 3.3 54 6.6 54 10 C46.74 10 39.48 10 32 10 C32 24.85 32 39.7 32 55 C28.7 55 25.4 55 22 55 C22 40.15 22 25.3 22 10 C14.74 10 7.48 10 0 10 C0 6.7 0 3.4 0 0 Z " fill="#363535" transform="translate(191,138)"/>
<path d="M0 0 C1.05692047 0.00424484 1.05692047 0.00424484 2.13519287 0.00857544 C4.3767626 0.01973449 6.61792686 0.04483057 8.859375 0.0703125 C10.38280671 0.08034786 11.90624471 0.08947274 13.4296875 0.09765625 C17.15638086 0.11965959 20.88283833 0.15415978 24.609375 0.1953125 C24.609375 3.4953125 24.609375 6.7953125 24.609375 10.1953125 C14.709375 10.5253125 4.809375 10.8553125 -5.390625 11.1953125 C-5.41125 14.1446875 -5.431875 17.0940625 -5.453125 20.1328125 C-5.462229 21.06343506 -5.47133301 21.99405762 -5.48071289 22.95288086 C-5.48321045 23.68128174 -5.48570801 24.40968262 -5.48828125 25.16015625 C-5.49351807 25.909021 -5.49875488 26.65788574 -5.50415039 27.42944336 C-5.58404252 29.22198989 -5.58404252 29.22198989 -4.390625 30.1953125 C-2.24675843 30.35390092 -0.09795662 30.44660548 2.05078125 30.51171875 C3.35595703 30.55361328 4.66113281 30.59550781 6.00585938 30.63867188 C7.3945283 30.67848858 8.78320022 30.71820075 10.171875 30.7578125 C11.56446683 30.80099239 12.95704528 30.8446065 14.34960938 30.88867188 C17.76942301 30.99517126 21.18931263 31.09718173 24.609375 31.1953125 C24.609375 34.4953125 24.609375 37.7953125 24.609375 41.1953125 C20.32273502 41.2948149 16.03672169 41.3670756 11.74926758 41.41503906 C10.29341916 41.43505072 8.83765006 41.46226927 7.38208008 41.49707031 C-8.0727895 41.85710153 -8.0727895 41.85710153 -13.390625 37.1953125 C-17.21917765 32.04088813 -16.90707269 26.42980779 -16.890625 20.2578125 C-16.91898438 19.29423828 -16.94734375 18.33066406 -16.9765625 17.33789062 C-16.99490118 10.63051799 -15.98365936 7.15130216 -11.390625 2.1953125 C-7.75237691 -0.29935246 -4.3175868 -0.03426656 0 0 Z " fill="#363636" transform="translate(262.390625,151.8046875)"/>
<path d="M0 0 C1.02158203 0.00322266 2.04316406 0.00644531 3.09570312 0.00976562 C4.15080078 0.01814453 5.20589844 0.02652344 6.29296875 0.03515625 C7.36740234 0.03966797 8.44183594 0.04417969 9.54882812 0.04882812 C12.19273232 0.06057881 14.83660775 0.07851325 17.48046875 0.09765625 C17.48046875 3.72765625 17.48046875 7.35765625 17.48046875 11.09765625 C14.79083984 11.18853516 14.79083984 11.18853516 12.046875 11.28125 C9.71223051 11.36563474 7.37759556 11.45028376 5.04296875 11.53515625 C3.85896484 11.57447266 2.67496094 11.61378906 1.45507812 11.65429688 C0.33037109 11.69619141 -0.79433594 11.73808594 -1.953125 11.78125 C-2.99525146 11.81790771 -4.03737793 11.85456543 -5.11108398 11.89233398 C-7.46951385 11.83280966 -7.46951385 11.83280966 -8.51953125 13.09765625 C-8.67811967 15.24152282 -8.77082423 17.39032463 -8.8359375 19.5390625 C-8.87783203 20.84423828 -8.91972656 22.14941406 -8.96289062 23.49414062 C-9.00270733 24.88280955 -9.0424195 26.27148147 -9.08203125 27.66015625 C-9.12521114 29.05274808 -9.16882525 30.44532653 -9.21289062 31.83789062 C-9.31939001 35.25770426 -9.42140048 38.67759388 -9.51953125 42.09765625 C-12.81953125 42.09765625 -16.11953125 42.09765625 -19.51953125 42.09765625 C-19.61903365 37.81101627 -19.69129435 33.52500294 -19.73925781 29.23754883 C-19.75926947 27.78170041 -19.78648802 26.32593131 -19.82128906 24.87036133 C-20.17224416 9.8050975 -20.17224416 9.8050975 -15.51953125 4.09765625 C-10.72946776 0.41299202 -5.90105934 -0.03296681 0 0 Z " fill="#3D3B3B" transform="translate(527.51953125,150.90234375)"/>
<path d="M0 0 C1.20205078 0.00966797 2.40410156 0.01933594 3.64257812 0.02929688 C5.51139648 0.06700195 5.51139648 0.06700195 7.41796875 0.10546875 C9.31579102 0.12577148 9.31579102 0.12577148 11.25195312 0.14648438 C14.37022518 0.18178557 17.48762917 0.23110056 20.60546875 0.29296875 C20.60546875 3.59296875 20.60546875 6.89296875 20.60546875 10.29296875 C12.02546875 10.62296875 3.44546875 10.95296875 -5.39453125 11.29296875 C-5.39453125 21.19296875 -5.39453125 31.09296875 -5.39453125 41.29296875 C-8.69453125 41.29296875 -11.99453125 41.29296875 -15.39453125 41.29296875 C-15.49385401 36.84560133 -15.56621128 32.39883162 -15.61425781 27.95068359 C-15.63429916 26.43950139 -15.6615403 24.92839603 -15.69628906 23.41748047 C-15.74514234 21.23776232 -15.76757349 19.05907444 -15.78515625 16.87890625 C-15.80610352 15.56970215 -15.82705078 14.26049805 -15.84863281 12.91162109 C-15.18980917 7.66157591 -13.1656994 4.69213087 -9.04418945 1.4362793 C-5.83911641 0.0533108 -3.4853008 -0.04955404 0 0 Z " fill="#383737" transform="translate(416.39453125,151.70703125)"/>
<path d="M0 0 C3.37548805 -0.08122832 6.74900518 -0.14061118 10.125 -0.1875 C11.55199219 -0.22520508 11.55199219 -0.22520508 13.0078125 -0.26367188 C18.44195799 -0.32027756 22.33222539 -0.12171297 27 3 C31.38892541 7.86340384 32.14543256 10.81155805 32.09765625 17.1953125 C32.0962413 17.90275604 32.09482635 18.61019958 32.09336853 19.33908081 C32.087766 21.60109669 32.07521318 23.86301398 32.0625 26.125 C32.05748532 27.65755065 32.05292236 29.19010286 32.04882812 30.72265625 C32.03779577 34.48180888 32.02052952 38.24088772 32 42 C28.7 42 25.4 42 22 42 C21.67 32.1 21.34 22.2 21 12 C14.07 11.67 7.14 11.34 0 11 C0 7.37 0 3.74 0 0 Z " fill="#3C3A3A" transform="translate(309,151)"/>
<path d="M0 0 C3.3 0 6.6 0 10 0 C10 19.47 10 38.94 10 59 C6.7 59 3.4 59 0 59 C0 39.53 0 20.06 0 0 Z " fill="#3A3838" transform="translate(295,134)"/>
<path d="M0 0 C3.45116902 1.4844314 5.68859241 3.44333067 8.328125 6.09765625 C9.12734375 6.89880859 9.9265625 7.69996094 10.75 8.52539062 C11.9875 9.78125977 11.9875 9.78125977 13.25 11.0625 C14.09046875 11.90361328 14.9309375 12.74472656 15.796875 13.61132812 C22 19.85976816 22 19.85976816 22 21 C8.14 21 -5.72 21 -20 21 C-13.25 13.125 -13.25 13.125 -10.3515625 10.25390625 C-9.73925781 9.64482422 -9.12695312 9.03574219 -8.49609375 8.40820312 C-7.87863281 7.79912109 -7.26117188 7.19003906 -6.625 6.5625 C-5.98433594 5.92634766 -5.34367187 5.29019531 -4.68359375 4.63476562 C-3.12469121 3.08749668 -1.56348584 1.54263508 0 0 Z " fill="#FDF70B" transform="translate(422,51)"/>
</svg>
